<?xml version="1.0" encoding="UTF-8"?>
<svg width="12px" height="12px" viewBox="0 0 12 12" version="1.1" xmlns="http://www.w3.org/2000/svg" xmlns:xlink="http://www.w3.org/1999/xlink">
    <!-- Generator: Sketch 52.5 (67469) - http://www.bohemiancoding.com/sketch -->
    <title>renqizhi@1x</title>
    <desc>Created with Sketch.</desc>
    <g id="页面-1" stroke="none" stroke-width="1" fill="none" fill-rule="evenodd">
        <g id="分组-2-copy" stroke="#A9A9A9" stroke-width="0.666666667">
            <path d="M6,11.7478992 C8.46603813,11.7478992 11.12,10.3274401 11.12,7.20986864 C11.12,7.10716443 11.104347,4.6912057 9.73883371,3.40525921 C9.58532177,3.26082518 9.36122151,3.20531837 9.15213892,3.25991115 C8.94298573,3.31450392 8.7812679,3.47075392 8.72867961,3.66901626 C8.55702647,4.31623561 8.28053203,4.73547819 7.99438464,5.00721227 C8.29680264,3.97646415 8.23290257,3.0733983 7.80040795,2.31217395 C6.88242454,0.697175132 4.66273964,0.418095545 4.56878659,0.407309941 C4.39748639,0.388364504 4.22563914,0.438154442 4.09535075,0.544614505 C3.96582119,0.652320978 3.89165052,0.807274713 3.8917917,0.970022667 C3.8917917,0.984231745 3.87972109,2.44773354 2.86356698,3.40525921 C1.62634792,4.57038699 0.88,5.27324609 0.88,7.20986864 C0.88,10.3445242 3.45206178,11.7478992 6,11.7478992 Z" id="路径"></path>
            <path d="M3.71525032,4.20738244 C4.57727484,3.39558707 4.90132815,2.35016454 5.02300476,1.66944168 C5.57474069,1.83393461 6.36024747,2.17714616 6.74089497,2.85216877 C7.15168368,3.57942428 7.02518941,4.57831416 6.36499454,5.82121794 C6.27146502,5.99701166 6.28131209,6.20597651 6.39098868,6.37334449 C6.50073587,6.54069585 6.69471256,6.64255251 6.9035128,6.64261898 C6.98183054,6.64261898 8.53952056,6.62106439 9.45633927,5.03553071 C9.9050339,6.01746941 9.9153045,7.19512776 9.9153045,7.20986864 C9.9153045,9.12998872 8.68228543,10.1011418 7.29506619,10.4533774 C6.68484785,10.5192045 4.88023989,10.3756845 3.8917917,6.64261898 C3.8917917,6.64261898 3.05630838,8.61382526 3.47736769,9.92469995 C2.66600793,9.39381224 2.0846955,8.52586193 2.0846955,7.20986864 C2.0846955,5.74292675 2.52862542,5.3248641 3.71525032,4.20738244 Z" id="路径" fill="#A9A9A9" opacity="0.3"></path>
        </g>
    </g>
</svg>