<?xml version="1.0" encoding="UTF-8"?>
<svg width="18px" height="19px" viewBox="0 0 18 19" version="1.1" xmlns="http://www.w3.org/2000/svg" xmlns:xlink="http://www.w3.org/1999/xlink">
    <!-- Generator: Sketch 52.5 (67469) - http://www.bohemiancoding.com/sketch -->
    <title>分组 2@1x</title>
    <desc>Created with Sketch.</desc>
    <g id="页面-1" stroke="none" stroke-width="1" fill="none" fill-rule="evenodd">
        <g id="分组-2" stroke="#A9A9A9">
            <path d="M9,17.6218487 C12.6990572,17.6218487 16.68,15.4911601 16.68,10.814803 C16.68,10.6607466 16.6565206,7.03680855 14.6082506,5.10788882 C14.3779826,4.89123777 14.0418323,4.80797756 13.7282084,4.88986672 C13.4144786,4.97175588 13.1719019,5.20613088 13.0930194,5.50352439 C12.8355397,6.47435341 12.420798,7.10321729 11.991577,7.5108184 C12.445204,5.96469622 12.3493538,4.61009745 11.7006119,3.46826093 C10.3236368,1.0457627 6.99410946,0.627143318 6.85317989,0.610964911 C6.59622959,0.582546755 6.33845871,0.657231664 6.14302613,0.816921758 C5.94873179,0.978481467 5.83747578,1.21091207 5.83768754,1.455034 C5.83768754,1.47634762 5.81958164,3.67160031 4.29535048,5.10788882 C2.43952187,6.85558048 1.32,7.90986914 1.32,10.814803 C1.32,15.5167863 5.17809267,17.6218487 9,17.6218487 Z" id="路径"></path>
            <path d="M5.57287547,6.31107366 C6.86591225,5.0933806 7.35199222,3.52524681 7.53450714,2.50416252 C8.36211103,2.75090191 9.54037121,3.26571925 10.1113425,4.27825316 C10.7275255,5.36913643 10.5377841,6.86747124 9.54749181,8.73182691 C9.40719753,8.99551749 9.42196813,9.30896476 9.58648303,9.56001673 C9.7511038,9.81104378 10.0420688,9.96382876 10.3552692,9.96392847 C10.4727458,9.96392847 12.8092808,9.93159659 14.1845089,7.55329607 C14.8575508,9.02620411 14.8729567,10.7926916 14.8729567,10.814803 C14.8729567,13.6949831 13.0234282,15.1517127 10.9425993,15.6800661 C10.0272718,15.7788067 7.32035983,15.5635267 5.83768754,9.96392847 C5.83768754,9.96392847 4.58446257,12.9207379 5.21605153,14.8870499 C3.9990119,14.0907184 3.12704325,12.7887929 3.12704325,10.814803 C3.12704325,8.61439013 3.79293814,7.98729615 5.57287547,6.31107366 Z" id="路径" fill="#A9A9A9" opacity="0.3"></path>
        </g>
    </g>
</svg>